<svg id="Layer_1" data-name="Layer 1" xmlns="http://www.w3.org/2000/svg" viewBox="0 0 92.25 80"><defs><style>.cls-1{fill:#e91d0e;}</style></defs><title>noun_253648_cc</title><path class="cls-1" d="M88.81,63H85.48a2.34,2.34,0,0,0-2.34,2.34v2.85a2.58,2.58,0,0,1-2.24,2.63,2.46,2.46,0,0,1-2.68-2.45V37.71a0,0,0,0,0,0,0H1.49a0,0,0,0,0,0,0V72.38a5.87,5.87,0,0,0,5.87,5.87h7.42a5.68,5.68,0,0,0,5.68-5.68V63.29a0,0,0,0,1,0,0H44.2a0,0,0,0,1,0,0V73.42a5,5,0,0,0,5,5h8a5,5,0,0,0,5-5V56.51a2.58,2.58,0,0,1,2.24-2.63,2.46,2.46,0,0,1,2.68,2.45L67,66.67a11.8,11.8,0,1,0,23.6,0l0-1.88A1.79,1.79,0,0,0,88.81,63Z"/><path class="cls-1" d="M41,1.49H38.74C-2,1.49,1.54,27.67,1.54,34.73H78.22C78.22,27.67,81.75,1.49,41,1.49ZM20.29,24.07l-1.79,5.5-1.79-5.5H10.93l4.68-3.4-1.79-5.5,4.68,3.4,4.68-3.4-1.79,5.5,4.68,3.4H20.29Zm21.2,0-1.79,5.5-1.79-5.5H32.13l4.68-3.4L35,15.17l4.68,3.4,4.68-3.4-1.79,5.5,4.68,3.4H41.49Zm21.2,0-1.79,5.5-1.79-5.5H53.34L58,20.67l-1.79-5.5,4.68,3.4,4.68-3.4-1.79,5.5,4.68,3.4H62.7Z"/></svg>